<svg xmlns="http://www.w3.org/2000/svg" viewBox="0 0 64 64" role="img" aria-label="Cyberfyx favicon">
  <defs>
    <linearGradient id="shieldLeft" x1="9" y1="10" x2="32" y2="56" gradientUnits="userSpaceOnUse">
      <stop offset="0" stop-color="#ffd45b" />
      <stop offset="1" stop-color="#f0a82d" />
    </linearGradient>
    <linearGradient id="shieldRight" x1="32" y1="10" x2="55" y2="56" gradientUnits="userSpaceOnUse">
      <stop offset="0" stop-color="#f5b13c" />
      <stop offset="1" stop-color="#ea8726" />
    </linearGradient>
    <clipPath id="shieldShape">
      <path d="M32 5c-9.4 0-17.2 3.4-21.7 8.5-1.8 2-2.8 4.2-2.8 6.9 0 17.8 9.6 29.9 22.3 38.7 1.3.9 3 .9 4.3 0 12.7-8.8 22.4-20.9 22.4-38.7 0-2.7-1-4.9-2.8-6.9C49.2 8.4 41.4 5 32 5Z" />
    </clipPath>
  </defs>
  <g clip-path="url(#shieldShape)">
    <rect width="32" height="64" x="0" y="0" fill="url(#shieldLeft)" />
    <rect width="32" height="64" x="32" y="0" fill="url(#shieldRight)" />
    <path d="M32 8.5v42.7" stroke="#f8c54e" stroke-width="1.6" stroke-linecap="round" opacity="0.85" />
    <path d="M13 13.5c4.6-4.4 10.9-6.8 19-6.8" stroke="#fff2b7" stroke-width="2.2" stroke-linecap="round" opacity="0.65" />
  </g>
  <path d="M32 5c-9.4 0-17.2 3.4-21.7 8.5-1.8 2-2.8 4.2-2.8 6.9 0 17.8 9.6 29.9 22.3 38.7 1.3.9 3 .9 4.3 0 12.7-8.8 22.4-20.9 22.4-38.7 0-2.7-1-4.9-2.8-6.9C49.2 8.4 41.4 5 32 5Z" fill="none" stroke="#ff9b2f" stroke-width="2.2" stroke-linejoin="round" />
  <path d="M32 10.5v41.5" stroke="#fff0af" stroke-width="1.2" opacity="0.55" />
</svg>
